<?xml version="1.0" standalone="no"?>
<!DOCTYPE svg PUBLIC "-//W3C//DTD SVG 20010904//EN"
 "http://www.w3.org/TR/2001/REC-SVG-20010904/DTD/svg10.dtd">
<svg version="1.0" xmlns="http://www.w3.org/2000/svg"
 width="1200.000000pt" height="1200.000000pt" viewBox="0 0 1200.000000 1200.000000"
 preserveAspectRatio="xMidYMid meet">
<metadata>
Created by potrace 1.14, written by Peter Selinger 2001-2017
</metadata>
<g transform="translate(0.000000,1200.000000) scale(0.100000,-0.100000)"
fill="#000000" stroke="none">
<path d="M6110 11129 c-65 -61 -103 -86 -149 -98 -23 -7 -22 -9 33 -73 87
-103 216 -178 307 -178 14 0 58 11 95 25 38 14 76 28 84 31 10 3 -5 16 -42 36
-68 36 -168 124 -198 174 -12 19 -25 58 -29 87 -4 35 -11 52 -21 54 -8 1 -44
-25 -80 -58z"/>
<path d="M6270 10593 c-161 -11 -311 -26 -415 -43 -121 -20 -263 -55 -278 -69
-7 -7 223 -39 448 -62 61 -6 227 -12 370 -14 l260 -2 134 -57 c74 -31 136 -55
137 -53 2 2 -15 33 -37 69 -49 83 -130 172 -188 210 l-45 28 -170 -2 c-94 -1
-191 -3 -216 -5z"/>
<path d="M6270 10109 c-171 -11 -382 -36 -520 -60 -118 -20 -290 -62 -317 -77
-10 -6 44 -17 148 -31 405 -54 687 -73 1009 -70 l255 3 173 -73 c96 -40 176
-70 179 -67 14 14 -98 176 -177 257 -128 131 -124 129 -397 128 -125 -1 -284
-6 -353 -10z"/>
<path d="M3910 9879 c-24 -5 -69 -21 -100 -36 -49 -25 -57 -33 -72 -78 -90
-262 176 -731 751 -1328 57 -59 106 -106 108 -103 2 2 -30 66 -72 142 -308
562 -521 1064 -475 1119 48 58 354 -15 730 -175 80 -33 152 -63 160 -66 29
-11 -227 232 -308 291 -265 194 -514 275 -722 234z"/>
<path d="M8308 9874 c-212 -38 -454 -184 -697 -420 l-116 -113 125 53 c308
132 581 218 701 220 107 2 115 -15 74 -157 -48 -167 -261 -622 -464 -991 -39
-71 -69 -131 -67 -133 2 -2 61 56 132 129 363 374 631 752 714 1008 32 97 36
265 7 317 -21 40 -78 70 -166 89 -81 17 -142 16 -243 -2z"/>
<path d="M5483 9636 c36 -93 -1 -198 -85 -242 -15 -8 -51 -19 -80 -24 -29 -6
-64 -14 -78 -17 -24 -5 751 -145 777 -140 18 3 -14 68 -70 144 -83 112 -240
221 -394 274 -67 23 -77 23 -70 5z"/>
<path d="M6823 9621 c-153 -61 -281 -151 -359 -254 -50 -66 -91 -143 -82 -152
3 -3 184 25 402 62 218 37 388 71 379 74 -10 3 -49 14 -87 23 -134 32 -188
111 -163 239 10 45 6 46 -90 8z"/>
<path d="M2873 8906 c-127 -42 -228 -143 -291 -291 -76 -181 -84 -511 -21
-880 144 -854 695 -2207 1602 -3930 220 -418 696 -1287 717 -1308 4 -5 45 103
90 240 208 624 514 1486 719 2019 370 965 650 1582 862 1899 88 131 143 181
246 225 46 19 83 37 83 40 0 3 -41 23 -90 44 -82 35 -97 38 -163 34 -57 -2
-87 -10 -139 -36 -457 -225 -1030 -1212 -1634 -2815 l-48 -128 -17 33 c-45 88
-1268 2819 -1309 2923 -143 361 -222 692 -221 930 1 302 112 435 365 435 145
0 306 -43 645 -174 116 -45 140 -51 125 -34 -109 125 -249 274 -303 323 -237
214 -506 364 -776 431 -125 32 -373 43 -442 20z"/>
<path d="M6413 8530 c-106 -22 -275 -124 -458 -276 -177 -147 -199 -169 -192
-188 6 -16 10 -16 26 -5 96 70 247 167 296 190 135 65 130 34 -48 -276 -277
-482 -342 -740 -230 -907 58 -86 165 -115 392 -105 333 14 614 140 857 381 85
85 239 274 230 283 -1 1 -99 -47 -217 -107 -343 -174 -578 -270 -746 -305 -95
-20 -147 -13 -170 22 -16 23 -14 31 30 163 57 174 187 500 311 783 53 121 96
229 96 242 0 85 -71 127 -177 105z"/>
<path d="M7126 8165 c22 -167 88 -324 184 -442 188 -231 498 -337 884 -305
294 25 632 120 989 277 85 37 107 51 107 67 0 15 -4 18 -17 13 -89 -35 -463
-110 -683 -137 -161 -20 -551 -16 -675 6 -277 50 -473 142 -610 287 -73 76
-91 102 -144 199 -39 71 -40 73 -35 35z"/>
<path d="M3551 8131 c-44 -41 -62 -91 -68 -190 -22 -352 235 -1117 762 -2261
122 -265 433 -911 443 -922 4 -4 13 -4 20 1 10 6 -17 93 -118 377 -365 1022
-648 1925 -730 2325 -33 162 -40 296 -16 305 9 3 41 -16 76 -45 34 -29 89 -65
122 -82 292 -147 770 -74 1318 202 138 69 231 124 195 115 -11 -3 -63 -17
-115 -31 -268 -71 -633 -106 -883 -87 -337 27 -566 103 -771 256 -85 63 -91
66 -146 66 -50 0 -62 -4 -89 -29z"/>
<path d="M7998 7319 c-200 -16 -451 -75 -563 -132 -66 -33 -155 -109 -281
-240 -224 -233 -360 -465 -410 -700 -21 -102 -18 -277 6 -373 37 -145 113
-279 229 -406 235 -255 511 -354 790 -282 53 14 344 144 337 151 -1 2 -65 14
-142 28 -222 41 -366 96 -500 191 -178 126 -262 310 -234 513 22 161 75 319
152 449 51 88 210 242 288 280 186 91 529 87 722 -8 176 -87 301 -237 355
-424 65 -222 45 -775 -47 -1332 -171 -1041 -490 -1881 -1005 -2654 -270 -405
-520 -667 -740 -776 -50 -25 -122 -51 -163 -60 -334 -68 -621 293 -840 1057
-96 335 -195 835 -253 1282 l-12 97 -78 0 -77 0 -6 -62 c-33 -375 -4 -1143 60
-1587 88 -612 245 -1029 478 -1269 157 -162 315 -232 526 -232 134 0 209 13
340 56 487 162 1028 717 1551 1593 115 191 289 532 378 737 155 359 264 692
380 1162 271 1093 310 1877 115 2291 -148 315 -443 539 -814 619 -170 37 -349
47 -542 31z"/>
<path d="M6527 6438 c-2 -7 -120 -328 -262 -712 -214 -580 -259 -712 -266
-775 -13 -120 -28 -631 -35 -1176 -6 -489 -6 -503 16 -625 45 -251 120 -476
210 -630 28 -49 81 -113 152 -185 l108 -110 0 235 c0 451 28 1502 55 2135 40
911 97 1529 161 1744 8 29 12 57 7 61 -12 10 -114 50 -128 50 -7 0 -15 -6 -18
-12z"/>
</g>
</svg>
